<svg width="200" height="204" viewBox="0 0 200 204" fill="none" xmlns="http://www.w3.org/2000/svg">
<path d="M31.433 25.0744C19.4866 26.7811 26.0287 76.2737 42.8106 70.8693C55.8949 66.7449 43.2373 23.3678 31.433 25.0744Z" fill="#FACFE2"/>
<path d="M4.26995 74.1433C0.998885 77.2722 34.5628 98.6052 38.8294 89.6453C44.5182 77.4144 8.10989 70.3034 4.26995 74.1433Z" fill="#FACFE2"/>
<path d="M85.0502 31.3335C76.3748 25.2181 49.2108 52.951 61.4417 65.7508C61.8684 66.1774 62.5795 66.8885 63.0061 67.173C77.6548 78.1239 91.1657 35.7424 85.0502 31.3335Z" fill="#FACFE2"/>
<path d="M46.3669 99.1717C62.58 94.4784 47.6469 58.4967 34.136 60.4878C20.0562 62.4789 25.4605 105.145 46.3669 99.1717Z" fill="#FCE6EF"/>
<path d="M54.0464 62.7627C74.5261 63.0472 68.6951 4.45249 55.3264 2.74584C41.2466 1.0392 26.029 62.4783 54.0464 62.7627Z" fill="#FCE6EF"/>
<path d="M37.4068 105.001C39.6824 102.299 31.1492 95.6143 21.7626 97.4632C11.5228 99.4542 2.4207 112.112 3.98512 115.241C6.26064 119.792 29.8692 114.53 37.4068 105.001Z" fill="#FCE6EF"/>
<path d="M55.3266 14.269C55.3266 13.7001 54.8999 13.2734 54.331 13.2734C53.7621 13.2734 53.3355 13.7001 53.3355 14.269L52.7666 119.37C52.3399 118.09 51.9133 116.952 51.3444 115.814C46.2245 91.6367 37.2646 68.8815 37.1224 68.4548C36.9802 67.8859 36.4113 67.7437 35.8424 67.8859C35.2735 68.0282 35.1313 68.597 35.2735 69.1659C35.4158 69.4504 43.0956 88.7923 48.2156 110.552C46.7934 108.845 45.2289 107.281 43.3801 106.143C35.9846 101.45 26.8825 102.872 20.4826 104.863C19.9138 105.005 19.6293 105.574 19.7715 106.143C19.9138 106.712 20.4826 106.996 21.0515 106.854C27.0248 105.005 35.558 103.583 42.2423 107.85C45.2289 109.699 47.6467 112.543 49.3533 116.383C51.06 124.347 52.1977 132.596 52.4822 140.134V147.814H54.4732C54.6155 145.396 54.6155 142.836 54.4732 140.134L55.3266 14.269Z" fill="#FACFE2"/>
<path d="M48.2158 121.93C45.3714 120.082 42.8114 121.219 42.6692 121.219C42.2426 121.504 41.9581 122.073 42.1003 122.499C42.3848 123.068 42.9537 123.21 43.3803 123.068C43.5225 123.068 45.087 122.357 47.078 123.637C49.2114 125.059 52.9091 130.179 52.4824 147.815C52.4824 148.383 52.9091 148.81 53.478 148.81C54.0468 148.81 54.4735 148.383 54.4735 147.815C54.9002 133.593 52.7669 124.917 48.2158 121.93Z" fill="#FAAACE"/>
<path d="M71.6823 151.368L62.2958 182.798C62.0113 183.936 60.8736 184.789 59.5936 184.789H46.2249C44.9449 184.789 43.8071 183.936 43.5227 182.656L35.5584 151.225C35.1317 149.519 36.4117 147.67 38.2606 147.67H68.9801C70.829 147.67 72.2512 149.519 71.6823 151.368Z" fill="#FAAACE"/>
<path d="M25.318 122.921C14.2249 130.317 10.2427 152.361 16.7848 153.925C21.4781 155.063 27.0247 144.823 41.1045 134.726C50.3488 128.183 43.6644 110.69 25.318 122.921Z" fill="#FCE6EF"/>
<g filter="url(#filter0_d_1381_384728)">
<rect x="54.6958" y="48.7461" width="104.639" height="136.107" rx="5.1093" fill="url(#paint0_linear_1381_384728)"/>
<rect x="64.7997" y="58.9629" width="84.431" height="115.675" fill="#E8EAFF"/>
<rect x="95.9377" y="35.0703" width="22.155" height="19.594" rx="2.55" fill="#E6E6E6"/>
<rect x="85.5585" y="45.6992" width="42.9137" height="17.0543" rx="2.55465" fill="#DEDEDE"/>
</g>
<path d="M107.53 148.662C125.128 148.662 139.393 134.397 139.393 116.8C139.393 99.2027 125.128 84.9375 107.53 84.9375C89.9334 84.9375 75.6682 99.2027 75.6682 116.8C75.6682 134.397 89.9334 148.662 107.53 148.662Z" fill="url(#paint1_linear_1381_384728)"/>
<path d="M123.286 107.677L102.026 128.937L91.775 118.686" stroke="white" stroke-width="10" stroke-linecap="round" stroke-linejoin="round"/>
<g filter="url(#filter1_d_1381_384728)">
<path d="M133.088 155.241L130.01 140.526C128.897 135.203 133.528 130.446 138.88 131.416L154.144 134.185L133.088 155.241Z" fill="#FCE1BB"/>
<path d="M130.384 142.314L128.846 134.956C128.289 132.295 130.605 129.916 133.28 130.401L140.912 131.786L130.384 142.314Z" fill="#7E7EF2"/>
<rect x="133.199" y="155.352" width="29.7782" height="59.3058" transform="rotate(-45 133.199 155.352)" fill="#ACAFFA"/>
<rect x="139.393" y="149.156" width="12.2601" height="59.3058" transform="rotate(-45 139.393 149.156)" fill="#D9DBFC"/>
</g>
<path d="M156.317 17.942C156.476 17.4682 157.195 17.4682 157.354 17.942C158.077 20.0958 159.471 23.8527 161.006 25.8701C162.665 28.0498 165.868 30.0133 167.409 30.8804C167.767 31.0816 167.767 31.6191 167.409 31.8202C165.868 32.6874 162.665 34.6509 161.006 36.8306C159.471 38.848 158.077 42.6049 157.354 44.7587C157.195 45.2324 156.476 45.2324 156.317 44.7587C155.595 42.6049 154.201 38.848 152.666 36.8306C151.007 34.6509 147.803 32.6874 146.262 31.8202C145.905 31.6191 145.905 31.0816 146.262 30.8804C147.803 30.0133 151.007 28.0498 152.666 25.8701C154.201 23.8527 155.595 20.0958 156.317 17.942Z" fill="#FFEED4"/>
<path d="M173.503 41.0346C173.67 40.5634 174.401 40.5634 174.567 41.0346C175.063 42.4382 175.852 44.4133 176.71 45.5411C177.674 46.8069 179.449 47.959 180.51 48.5786C180.864 48.7854 180.864 49.3276 180.51 49.5345C179.449 50.1541 177.674 51.3062 176.71 52.5719C175.852 53.6997 175.063 55.6749 174.567 57.0784C174.401 57.5496 173.67 57.5496 173.503 57.0784C173.008 55.6749 172.219 53.6997 171.36 52.5719C170.397 51.3062 168.622 50.1541 167.561 49.5345C167.206 49.3276 167.206 48.7854 167.561 48.5786C168.622 47.959 170.397 46.8069 171.36 45.5411C172.219 44.4133 173.008 42.4382 173.503 41.0346Z" fill="#FCE1BB"/>
<path d="M70.9246 140.644C71.0837 140.17 71.803 140.17 71.9621 140.644C72.6735 142.762 74.0356 146.423 75.5348 148.393C77.1564 150.524 80.2834 152.444 81.8013 153.3C82.1587 153.501 82.1587 154.038 81.8013 154.24C80.2834 155.095 77.1564 157.015 75.5348 159.146C74.0356 161.117 72.6735 164.777 71.9621 166.895C71.803 167.369 71.0837 167.369 70.9246 166.895C70.2131 164.777 68.851 161.117 67.3519 159.146C65.7302 157.015 62.6032 155.095 61.0853 154.24C60.7279 154.038 60.7279 153.501 61.0853 153.3C62.6032 152.444 65.7302 150.524 67.3519 148.393C68.851 146.423 70.2131 142.762 70.9246 140.644Z" fill="white"/>
<path d="M49.7598 157.639C49.928 157.168 50.6619 157.168 50.8301 157.639C51.2865 158.915 51.9881 160.64 52.7485 161.639C53.6106 162.772 55.1821 163.806 56.1619 164.383C56.5153 164.591 56.5153 165.136 56.1619 165.344C55.1821 165.921 53.6106 166.955 52.7485 168.088C51.9881 169.087 51.2865 170.812 50.8301 172.088C50.6619 172.559 49.928 172.559 49.7598 172.088C49.3033 170.812 48.6017 169.087 47.8413 168.088C46.9793 166.955 45.4077 165.921 44.4279 165.344C44.0745 165.136 44.0745 164.591 44.4279 164.383C45.4077 163.806 46.9793 162.772 47.8413 161.639C48.6017 160.64 49.3033 158.915 49.7598 157.639Z" fill="white"/>
<defs>
<filter id="filter0_d_1381_384728" x="46.6958" y="33.0703" width="116.639" height="161.783" filterUnits="userSpaceOnUse" color-interpolation-filters="sRGB">
<feFlood flood-opacity="0" result="BackgroundImageFix"/>
<feColorMatrix in="SourceAlpha" type="matrix" values="0 0 0 0 0 0 0 0 0 0 0 0 0 0 0 0 0 0 127 0" result="hardAlpha"/>
<feOffset dx="-2" dy="4"/>
<feGaussianBlur stdDeviation="3"/>
<feComposite in2="hardAlpha" operator="out"/>
<feColorMatrix type="matrix" values="0 0 0 0 0 0 0 0 0 0 0 0 0 0 0 0 0 0 0.25 0"/>
<feBlend mode="normal" in2="BackgroundImageFix" result="effect1_dropShadow_1381_384728"/>
<feBlend mode="normal" in="SourceGraphic" in2="effect1_dropShadow_1381_384728" result="shape"/>
</filter>
<filter id="filter1_d_1381_384728" x="122.762" y="128.338" width="75.4287" height="74.9492" filterUnits="userSpaceOnUse" color-interpolation-filters="sRGB">
<feFlood flood-opacity="0" result="BackgroundImageFix"/>
<feColorMatrix in="SourceAlpha" type="matrix" values="0 0 0 0 0 0 0 0 0 0 0 0 0 0 0 0 0 0 127 0" result="hardAlpha"/>
<feOffset dx="-2" dy="2"/>
<feGaussianBlur stdDeviation="2"/>
<feComposite in2="hardAlpha" operator="out"/>
<feColorMatrix type="matrix" values="0 0 0 0 0 0 0 0 0 0 0 0 0 0 0 0 0 0 0.25 0"/>
<feBlend mode="normal" in2="BackgroundImageFix" result="effect1_dropShadow_1381_384728"/>
<feBlend mode="normal" in="SourceGraphic" in2="effect1_dropShadow_1381_384728" result="shape"/>
</filter>
<linearGradient id="paint0_linear_1381_384728" x1="107.015" y1="48.7461" x2="107.015" y2="184.854" gradientUnits="userSpaceOnUse">
<stop stop-color="#C5C8FC"/>
<stop offset="1" stop-color="#98E2EB"/>
</linearGradient>
<linearGradient id="paint1_linear_1381_384728" x1="107.53" y1="84.9375" x2="107.53" y2="148.662" gradientUnits="userSpaceOnUse">
<stop stop-color="#FAAACE"/>
<stop offset="1" stop-color="#81B4F7"/>
</linearGradient>
</defs>
</svg>
