<svg fill="none" xmlns="http://www.w3.org/2000/svg" viewBox="0 0 32 32" width="32" height="32"><path d="M11.812 15.647c1.356-2.28 5.412-4.111 8.269.381 2.106 3.045 5.712 5.862 5.712 5.862s2.703 2.134.973 6.245c-1.653 3.941-7.52 2.143-8.006 1.987l-.032-.012s-2.328-.757-5.035-.149c-2.701.611-5.03.381-5.03.381l-.06-.001c-.437-.013-3.173-.25-4.001-3.957-.9-4.037 3.153-6.25 3.456-6.624.301-.384 2.403-1.827 3.755-4.113m1.315 2.317v2.709h-2.187s-2.187.184-2.95 2.685c-.267 1.669.236 2.653.323 2.864.09.209.795 1.43 2.57 1.789h4.104V17.994zm4.784 2.922-1.92.032v5.275s.085 1.313 1.92 1.792h4.721v-7.068h-2.038v5.306h-1.947s-.621-.091-.737-.596zm-4.817 1.402v4.08h-1.654s-1.151-.06-1.501-1.398c-.181-.593.027-1.279.117-1.547.084-.271.47-.895 1.268-1.133zm12.7-12.048c2.781 0 3.528 2.747 3.528 3.656 0 .917.379 4.796-3.078 4.874-3.46.076-3.605-2.36-3.605-4.107 0-1.832.369-4.422 3.156-4.422M5.654 8.108c2.031-.18 3.526 2.067 3.683 3.35.093.833.524 4.648-2.634 5.333-3.152.687-4.325-2.998-3.979-4.725 0 0 .373-3.729 2.929-3.958zm11.795-1.979c.187-1.747 2.253-4.421 3.908-4.037 1.648.38 3.156 2.592 2.849 4.493-.299 1.904-1.793 4.417-4.127 4.109-2.331-.301-2.858-2.431-2.63-4.565m-4.883-4.796c1.743 0 3.152 2.026 3.152 4.531s-1.409 4.533-3.152 4.533S9.41 8.369 9.41 5.864c0-2.507 1.413-4.531 3.156-4.531" fill="#2932e1"/></svg>