<svg width="16" height="17" viewBox="0 0 16 17" fill="none" xmlns="http://www.w3.org/2000/svg"><path fill-rule="evenodd" clip-rule="evenodd" d="M8 16.8394C12.4183 16.8394 16 13.2576 16 8.83936C16 4.42108 12.4183 0.839355 8 0.839355C3.58172 0.839355 0 4.42108 0 8.83936C0 13.2576 3.58172 16.8394 8 16.8394ZM12.1741 7.41778C12.4911 7.11815 12.5051 6.61834 12.2054 6.30143C11.9058 5.98452 11.406 5.9705 11.0891 6.27013L6.66484 10.4531L4.75678 8.47433C4.45405 8.16038 3.95413 8.15129 3.64018 8.45403C3.32623 8.75676 3.31714 9.25668 3.61988 9.57063L6.07072 12.1122C6.37135 12.424 6.86698 12.4355 7.18169 12.1379L12.1741 7.41778Z" fill="#58CC02"/></svg>