<svg width="42" height="42" viewBox="0 0 42 42" fill="none" xmlns="http://www.w3.org/2000/svg"><path d="M11.4336 7.03906H36.027C37.2247 7.03906 38.0554 8.23358 37.6394 9.35671C36.5908 12.188 34.9599 16.6459 34.9599 16.9834C34.9599 17.3363 36.7425 22.9338 37.7786 26.1576C38.1351 27.2668 37.3075 28.4006 36.1424 28.4006H11.4336V7.03906Z" fill="#FF9600"/><path opacity="0.7" fill-rule="evenodd" clip-rule="evenodd" d="M20.9751 7.03906L28.6157 28.4006H11.4336V7.03906H20.9751Z" fill="#FFC800"/><path fill-rule="evenodd" clip-rule="evenodd" d="M7.36897 2.69141C5.71652 2.69141 4.37695 4.03098 4.37695 5.68342C4.37695 6.71683 4.90086 7.62787 5.69757 8.16543C5.69515 8.20371 5.69393 8.24232 5.69393 8.28123L5.69393 37.5795C5.69393 38.5417 6.4432 39.3217 7.36747 39.3217C8.29174 39.3217 9.04101 38.5417 9.04101 37.5795L9.04102 8.28123C9.04102 8.24298 9.03983 8.20501 9.0375 8.16736C9.83581 7.63006 10.361 6.71807 10.361 5.68342C10.361 4.03098 9.02141 2.69141 7.36897 2.69141Z" fill="#CD7900"/></svg>