<svg width="202" height="202" viewBox="0 0 202 202" xmlns="http://www.w3.org/2000/svg"><g stroke-width=".04"><path d="M185.89 98.45a87.45 87.45 0 1 1 0-.105"/><path d="m87.045 165.685 17.05-17.05L71.26 115.8c-1.38-1.38-2.88-3.11-3.685-5.07-1.845-3.915-2.65-10.02 1.845-14.515 5.53-5.53 12.9-3.225 20.045 3.92L121.03 131.7l17.05-17.05-32.95-32.95c-1.38-1.38-2.995-3.455-3.8-5.185-2.19-4.49-2.075-10.135 1.96-14.17 5.645-5.645 13.015-3.57 21.2 4.61L155.13 97.6l17.05-17.05L139 47.37c-16.82-16.82-32.6-16.245-43.43-5.415-4.15 4.15-6.685 8.525-7.95 13.48a33.5 33.5 0 0 0-.46 14.05l-.23.235c-8.3-3.455-17.745-1.385-25 5.875-9.68 9.675-9.33 19.93-8.18 25.92l-.35.35-8.405-6.8-14.75 14.745c5.185 4.725 11.41 10.485 18.435 17.51z" fill="#f2f2f2"/><path d="M100.91 1A100 100 0 1 0 201 101v-.12A100 100 0 0 0 100.91 1m-.455 21.37a78.325 78.325 0 0 1 78.395 78.235v.09a78.325 78.325 0 1 1-78.4-78.325z" fill="#ffbd3f"/></g></svg>