<svg viewBox="0 0 80 80" preserveAspectRatio="xMidYMid" xmlns="http://www.w3.org/2000/svg"><g transform="translate(2.29)"><path d="M42.194 18.802c2.185-.194 6.963-.084 9.296 2.204.14.14.019.455-.18.402-3.42-.921-8.752 3.614-12.208.681-.094.86-.869 4.997-6.77 4.384-.14-.014-.195-.169-.092-.256.914-.777 2.037-2.928 1.074-4.302-3.003 1.994-4.557 2.08-10.096-.32-.18-.077-.073-.372.14-.42 1.15-.258 3.885-1.253 6.338-1.717a8 8 0 0 1 1.371-.146c-2.539-.606-3.645-1.131-5.318-1.125-.183.003-.275-.226-.142-.352 2.617-2.516 7.362-2.646 9.648-.772l-2.048-4.277 2.489-.375s.65 2.282 1.23 4.332c2.592-2.839 6.6-2.551 7.952-.071.08.146-.053.32-.217.29-1.36-.23-2.29.9-2.487 1.836z" fill="#00912D"/><mask id="a" fill="#fff"><path d="M.137.921h74.916v78.942H.137z"/></mask><path d="M13.05 59.182c-3.144-3.827-5.18-8.606-5.532-14.22-.606-9.728 2.717-18.877 15.661-23.479.012.042-.006.092.04.112-.181-.077-.074-.372.139-.42 1.15-.258 3.885-1.255 6.338-1.717q.705-.135 1.371-.148c-2.539-.604-3.645-1.13-5.318-1.123-.183.003-.275-.226-.142-.354 2.617-2.516 7.362-2.644 9.648-.77l-2.048-4.279 2.489-.373s.65 2.28 1.23 4.332c2.592-2.839 6.6-2.551 7.952-.071.08.146-.053.32-.217.29-1.36-.23-2.29.9-2.487 1.836l.02.004c2.185-.194 6.963-.084 9.296 2.204-.162-.156-.356-.281-.54-.419 9.327 2.917 15.797 9.566 16.49 20.638.441 7.07-1.87 13.164-5.872 17.89 1.216.174 2.425.378 3.637.579 5.099-6.24 8.045-14.151 8.045-22.638 0-19.34-15.716-34.49-35.778-34.49S1.694 17.717 1.694 37.057c0 8.5 2.946 16.416 8.05 22.654 1.1-.183 2.201-.364 3.305-.528" fill="gold" mask="url(#a)"/><path d="M9.744 59.71c-5.104-6.238-8.05-14.153-8.05-22.654 0-19.34 15.716-34.49 35.778-34.49s35.778 15.15 35.778 34.49c0 8.487-2.946 16.398-8.045 22.638.608.1 1.216.18 1.824.29 4.92-6.338 7.865-14.286 7.865-22.928 0-20.67-16.755-36.135-37.422-36.135C16.802.921.048 16.386.048 37.056c0 8.651 2.95 16.603 7.881 22.942.604-.108 1.21-.188 1.815-.288" fill="#FA6E0F" mask="url(#a)"/><path d="M58.286 74.94c4.089.255 7.501 2.274 9.56 5.007.067.071.165.069.195-.009.704-2.84.898-5.872.544-8.925.002-.032.028-.055.069-.064a20 20 0 0 1 6.31-.903c.122.013.12-.105-.009-.227-2.397-2.32-5.325-4.128-8.539-5.277a717 717 0 0 0-3.26 9.421c-.02.06-.105.096-.191.08z" fill="#0AC855" mask="url(#a)"/><path d="m62.965 74.043-4.68.896s.06-.427.243-1.606c2.414.342 4.437.71 4.437.71" fill="#0B4902"/><g transform="translate(0 20.57)"><mask id="b" fill="#fff"><path d="M.137.016h67.357v59.275H.137z"/></mask><path d="M13.077 38.606a169.3 169.3 0 0 1 48.491-.062c4.002-4.727 6.313-10.82 5.872-17.89C66.747 9.582 60.277 2.933 50.95.016c.184.137.378.263.54.418.14.14.019.455-.18.403-3.42-.922-8.752 3.613-12.208.68-.094.858-.869 4.997-6.77 4.385-.14-.014-.195-.17-.092-.256.914-.777 2.037-2.93 1.074-4.302-3.003 1.993-4.557 2.08-10.096-.32-.045-.02-.027-.07-.039-.112C10.235 5.513 6.912 14.662 7.518 24.391c.352 5.618 2.413 10.384 5.559 14.215" fill="#FA3200" mask="url(#b)"/><path d="M12.087 53.472c-.087.016-.172-.02-.192-.08a708 708 0 0 0-3.273-9.43 23.8 23.8 0 0 0-8.524 5.286c-.128.121-.13.24-.009.226a20 20 0 0 1 6.311.903q.063.015.069.064a25.1 25.1 0 0 0 .544 8.926c.03.078.128.08.194.009 2.06-2.734 5.467-4.752 9.559-5.008z" fill="#0AC855" mask="url(#b)"/></g><path d="M62.965 74.043a147.9 147.9 0 0 0-50.878 0c-.087.016-.172-.02-.192-.08a700 700 0 0 0-4.802-13.7c-.023-.064.048-.137.155-.156a169.1 169.1 0 0 1 60.555 0c.108.019.179.092.154.156a716 716 0 0 0-4.8 13.7c-.021.06-.106.096-.192.08" fill="#00912D"/><path d="m12.087 74.043 4.679.896s-.062-.427-.245-1.606c-2.414.342-4.434.71-4.434.71" fill="#0B4902"/></g></svg>