<svg viewBox="0 0 80 80" preserveAspectRatio="xMidYMid" xmlns="http://www.w3.org/2000/svg"><g transform="translate(1.33 16.27)"><mask id="a" fill="#fff"><path d="M0 .247h77.083v63.468H0z"/></mask><path d="M77.014 27.043C76.242 14.674 69.952 5.42 60.488.247c.053.301-.215.678-.52.545-6.19-2.708-16.693 6.056-24.031 1.466.055 1.647-.267 9.682-11.585 10.148-.268.011-.415-.262-.246-.455 1.514-1.726 3.042-6.097.845-8.428-4.706 4.217-7.44 5.804-16.463 3.71C2.711 13.274-.562 21.542.08 31.841c1.311 21.025 21.005 33.044 40.837 31.806 19.83-1.236 37.408-15.58 36.097-36.604" fill="#FA320A" mask="url(#a)"/></g><path d="M42.202 11.465c4.075-.971 15.796-.095 19.551 4.887.226.299-.092.864-.455.705-6.19-2.708-16.693 6.056-24.031 1.467.055 1.647-.267 9.682-11.585 10.148-.268.01-.415-.262-.246-.455 1.514-1.727 3.042-6.098.845-8.428-5.127 4.594-7.906 6.07-19.032 3.062-.364-.098-.24-.683.147-.83 2.103-.804 6.867-4.324 11.375-5.876a15.3 15.3 0 0 1 2.548-.657c-4.963-.444-7.2-1.134-10.356-.658a.392.392 0 0 1-.367-.627c4.253-5.478 12.088-7.132 16.922-4.222-2.98-3.692-5.314-6.636-5.314-6.636l5.53-3.142 3.948 8.82c4.114-6.078 11.768-6.639 15.002-2.326.192.256-.009.62-.33.613-2.631-.064-4.08 2.33-4.19 4.15z" fill="#00912D"/></svg>