<svg viewBox="0 0 80 80" preserveAspectRatio="xMidYMid" xmlns="http://www.w3.org/2000/svg"><g transform="translate(0 1.23)"><mask id="a" fill="#fff"><path d="M0 .162h79.742v77.36H0z"/></mask><path d="M71.464 70.226c-15.118.793-18.207-16.506-24.138-16.382-2.528.052-4.52 2.695-3.645 5.775.481 1.693 1.815 4.175 2.656 5.716 2.966 5.437-1.418 11.59-6.549 12.11-8.526.865-12.082-4.081-11.862-9.144.247-5.684 5.066-11.492.123-13.963-5.18-2.59-9.39 7.537-14.347 9.798-4.487 2.046-10.714.46-12.928-4.522C-.781 56.113-.5 49.372 6.425 46.8c4.325-1.606 13.963 2.101 14.457-2.594.57-5.413-10.124-5.87-13.344-7.167-5.698-2.297-9.06-7.21-6.426-12.48 1.977-3.954 7.793-5.563 12.233-3.831 5.319 2.074 6.172 7.59 8.897 9.885 2.347 1.977 5.56 2.225 7.661.865 1.55-1.003 2.065-3.205 1.48-5.217-.775-2.67-2.832-4.337-4.84-5.97-3.573-2.905-8.617-5.403-5.566-13.33C23.477.462 30.813.228 30.813.228 33.728-.1 36.338.78 38.464 2.68c2.843 2.54 3.397 5.935 2.921 9.558-.434 3.306-1.605 6.202-2.215 9.477-.708 3.804 1.325 7.636 5.19 7.785 5.085.197 6.61-3.712 7.232-6.189.91-3.624 2.106-6.99 5.47-9.108 4.827-3.042 11.533-2.376 14.645 3.47 2.46 4.626 1.67 10.994-2.105 14.47-1.693 1.56-3.73 2.11-5.933 2.126-3.158.022-6.316-.055-9.248 1.423-1.996 1.006-2.866 2.645-2.866 4.842 0 2.142 1.115 3.54 2.921 4.45 3.402 1.715 7.158 2.066 10.833 2.71 5.33.933 10.015 2.81 13.024 7.756l.079.131c3.455 5.856-.159 14.287-6.948 14.644" fill="#0AC855" mask="url(#a)"/></g></svg>