<svg width="56" height="56" viewBox="0 0 56 56" fill="none" xmlns="http://www.w3.org/2000/svg"><rect x="24.6396" y="11.3945" width="6.72" height="6.7334" fill="#1CB0F6"/><path fill-rule="evenodd" clip-rule="evenodd" d="M22.3997 8.51392C22.3997 7.93547 22.8686 7.46655 23.447 7.46655L32.5523 7.46655C33.1307 7.46655 33.5997 7.93547 33.5997 8.51392V11.4692C33.5997 12.0477 33.1307 12.5166 32.5523 12.5166H23.447C22.8686 12.5166 22.3997 12.0477 22.3997 11.4692L22.3997 8.51392Z" fill="#1CB0F6"/><path d="M42.9668 31.5942C42.9668 39.8823 36.2624 46.5949 27.9997 46.5949C19.737 46.5949 13.0326 39.8823 13.0326 31.5942C13.0326 23.3062 19.737 16.5936 27.9997 16.5936C36.2624 16.5936 42.9668 23.3062 42.9668 31.5942Z" fill="#DDF4FF" stroke="#1CB0F6" stroke-width="3.66577"/><g opacity="0.01"><path fill-rule="evenodd" clip-rule="evenodd" d="M26.8806 21.9807C26.8806 21.4023 27.3495 20.9333 27.928 20.9333H28.0733C28.6517 20.9333 29.1206 21.4023 29.1206 21.9807V23.8138C29.1206 24.3922 28.6517 24.8612 28.0733 24.8612H27.928C27.3495 24.8612 26.8806 24.3922 26.8806 23.8138V21.9807Z" fill="#1CB0F6"/><path fill-rule="evenodd" clip-rule="evenodd" d="M26.8811 39.3757C26.8811 38.7973 27.35 38.3284 27.9285 38.3284H28.0737C28.6522 38.3284 29.1211 38.7973 29.1211 39.3757V41.2088C29.1211 41.7873 28.6522 42.2562 28.0737 42.2562H27.9285C27.35 42.2562 26.8811 41.7873 26.8811 41.2088V39.3757Z" fill="#1CB0F6"/><path fill-rule="evenodd" clip-rule="evenodd" d="M18.4077 32.717C17.8293 32.717 17.3604 32.2481 17.3604 31.6697V31.5199C17.3604 30.9415 17.8293 30.4726 18.4077 30.4726H20.233C20.8114 30.4726 21.2804 30.9415 21.2804 31.5199V31.6697C21.2804 32.2481 20.8114 32.717 20.233 32.717H18.4077Z" fill="#1CB0F6"/><path fill-rule="evenodd" clip-rule="evenodd" d="M35.7673 32.717C35.1889 32.717 34.72 32.2481 34.72 31.6697V31.5199C34.72 30.9415 35.1889 30.4726 35.7673 30.4726H37.5926C38.1711 30.4726 38.64 30.9415 38.64 31.5199V31.6697C38.64 32.2481 38.1711 32.717 37.5926 32.717H35.7673Z" fill="#1CB0F6"/></g><path fill-rule="evenodd" clip-rule="evenodd" d="M27.7295 31.5676C29.3913 33.2327 31.884 35.7304 35.2075 39.0605C39.3627 34.8971 39.3627 28.1468 35.2075 23.9833C33.2161 21.9879 30.6316 20.9488 28.0225 20.8661" fill="#84D8FF"/><path fill-rule="evenodd" clip-rule="evenodd" d="M27.9998 34.4C26.4534 34.4 25.1998 33.1439 25.1998 31.5944C25.1998 30.0449 26.4534 28.7888 27.9998 28.7888C29.5462 28.7888 30.7998 30.0449 30.7998 31.5944C30.7998 33.1439 29.5462 34.4 27.9998 34.4Z" fill="#1CB0F6"/><path fill-rule="evenodd" clip-rule="evenodd" d="M35.339 37.6417C35.7471 38.0506 35.7471 38.7126 35.339 39.1215L35.2348 39.2259C34.8256 39.6359 34.1613 39.6359 33.7521 39.2259L28.5002 33.9635C28.0922 33.5546 28.0922 32.8926 28.5002 32.4837L28.6044 32.3793C29.0136 31.9693 29.6779 31.9693 30.0871 32.3793L35.339 37.6417Z" fill="#1CB0F6" stroke="#1CB0F6" stroke-width="0.458629"/><path opacity="0.75" d="M20.0823 28.1824C19.6529 29.2448 19.4343 30.4128 19.4768 31.6323C19.5518 33.7842 20.4266 35.7192 21.8051 37.1603" stroke="white" stroke-width="3.14209" stroke-linecap="round"/></svg>